<svg width="16" height="16" viewBox="0 0 16 16" fill="none" xmlns="http://www.w3.org/2000/svg">
<g clip-path="url(#clip0_60_36514)">
<path d="M16 8C16 8.74387 15.8984 9.4641 15.7088 10.1471C15.5297 10.7909 15.2722 11.402 14.9473 11.9693C14.8623 12.1177 14.7728 12.263 14.6787 12.4054C14.377 12.8621 14.0294 13.2861 13.6427 13.6708L13.6416 13.6718C13.4576 13.8549 13.2649 14.0289 13.0643 14.1934C12.8515 14.3674 12.6297 14.5309 12.3993 14.6828C11.1902 15.481 9.75129 15.9588 8.20269 15.997C8.19062 15.998 8.17805 15.998 8.16547 15.998H8.16497C8.1529 15.9985 8.14032 15.999 8.12775 15.9985C8.0855 15.9995 8.04275 16 8 16C7.95725 16 7.91349 15.9995 7.87074 15.999H7.86018C7.8134 15.998 7.76713 15.997 7.72036 15.995C6.13706 15.9407 4.67094 15.4266 3.45077 14.5812C3.44826 14.5797 3.44574 14.5776 3.44323 14.5761C3.38338 14.5344 3.32353 14.4921 3.26468 14.4484C3.01421 14.2643 2.7748 14.0656 2.54747 13.8539C2.54395 13.8504 2.54042 13.8474 2.5369 13.8438C2.07771 13.4148 1.66931 12.932 1.32126 12.4059C1.29813 12.3707 1.27549 12.336 1.25286 12.3003C0.919401 11.7782 0.645291 11.2149 0.43908 10.6199C0.154407 9.79907 0 8.91789 0 8C0 3.58204 3.58204 0 8 0C12.418 0 16 3.58204 16 8Z" fill="#F4F3FF"/>
<path d="M13.1501 4.38378C13.0686 4.26357 12.9821 4.15041 12.9001 4.04881C12.3464 3.36077 11.7438 2.70844 11.0905 2.13306C11.3063 2.32317 11.9867 3.911 12.0511 4.37774C12.1391 5.01499 8.80204 5.96105 8.74219 6.27992C9.26425 6.53341 9.72395 6.96092 10.0453 7.47896C10.1479 7.64444 10.237 7.81896 10.3089 8.00053C11.1649 7.2808 12.0632 6.61791 12.9987 6.01537C13.3166 5.81066 13.5781 5.61602 13.5087 5.17945C13.4649 4.90685 13.3186 4.63073 13.1511 4.38428L13.1501 4.38378Z" fill="#7A5AF8"/>
<path d="M3.25365 4.38378C3.33513 4.26357 3.42164 4.15041 3.50362 4.04881C4.05737 3.36077 4.65991 2.70844 5.31325 2.13306C5.09749 2.32317 4.41699 3.911 4.35261 4.37774C4.26459 5.01499 7.6017 5.96105 7.66155 6.27992C7.13948 6.53341 6.67978 6.96092 6.35839 7.47896C6.25579 7.64444 6.16677 7.81896 6.09484 8.00053C5.23882 7.2808 4.34054 6.61791 3.40504 6.01537C3.08717 5.81066 2.82564 5.61602 2.89505 5.17945C2.9388 4.90685 3.08516 4.63073 3.25265 4.38428L3.25365 4.38378Z" fill="#6938EF"/>
<path d="M15.7087 10.1471C15.5297 10.7909 15.2722 11.402 14.9473 11.9693C14.8623 12.1177 14.7727 12.263 14.6787 12.4054C14.0344 12.5879 13.5048 13.3112 13.0642 14.1934C12.8514 14.3674 12.6296 14.5309 12.3993 14.6827C11.1902 15.4809 9.75123 15.9587 8.20264 15.997L8.68698 6.18633C8.81624 6.10435 8.95455 6.03142 9.09991 5.96604C10.1526 5.49326 11.582 5.44598 12.6749 5.70853C12.3958 5.77894 11.8013 6.01181 11.5946 6.3513C14.052 6.38751 15.3677 8.088 15.8823 9.13868C15.584 9.10045 15.2858 9.06273 14.988 9.02451C15.1756 9.18545 15.4452 9.53752 15.7087 10.1471V10.1471Z" fill="#9B8AFB"/>
<path d="M7.64329 6.18633L8.12764 15.9985C8.08539 15.9995 8.04264 16 7.99989 16C7.95713 16 7.91338 15.9995 7.87063 15.999H7.86006C7.81329 15.998 7.76702 15.997 7.72024 15.995C6.13694 15.9406 4.67083 15.4266 3.45066 14.5812C2.93815 13.448 2.29638 12.4728 1.47757 12.3697C1.42727 12.3772 1.37496 12.3898 1.32115 12.4059C1.29801 12.3707 1.27538 12.336 1.25275 12.3003C0.919287 11.7782 0.645176 11.2149 0.438965 10.6199C0.753815 9.71406 1.11142 9.22317 1.34277 9.02451C1.04452 9.06273 0.746773 9.10045 0.448521 9.13868C0.963044 8.088 2.27827 6.38751 4.73621 6.3513C4.5295 6.01181 3.935 5.77894 3.65536 5.70853C4.74879 5.44598 6.17818 5.49326 7.23036 5.96604C7.37572 6.03142 7.51403 6.10435 7.64329 6.18633V6.18633Z" fill="#5925DC"/>
<path d="M8.16504 6.24412V15.9979C8.15297 15.9984 8.14039 15.9989 8.12782 15.9984C8.08557 15.9994 8.04282 15.9999 8.00007 15.9999C7.95732 15.9999 7.91356 15.9994 7.87081 15.9989H7.86025C7.81347 15.9979 7.7672 15.9969 7.72043 15.9949C6.13712 15.9406 4.67101 15.4266 3.45084 14.5811C3.44833 14.5796 3.44581 14.5776 3.4433 14.5761C3.38345 14.5343 3.32359 14.4921 3.26475 14.4483C3.01428 14.2642 2.77487 14.0656 2.54754 13.8538C2.6089 13.7713 2.66523 13.7004 2.71301 13.6421L2.53697 13.8438C2.07778 13.4147 1.66938 12.9319 1.32133 12.4058C1.2982 12.3706 1.27556 12.3359 1.25293 12.3002C1.94147 10.4252 3.14454 9.45348 3.18176 9.4233L1.76946 10.1601C2.94537 7.74745 5.12719 7.11625 5.12719 7.11625L3.62688 7.0911C5.08343 6.24714 6.90866 6.27229 6.90866 6.27229L5.84591 5.83472C6.42029 5.84578 6.87848 5.9001 7.23055 5.96599C7.82655 6.07714 8.12078 6.22149 8.16504 6.24412V6.24412Z" fill="#6938EF"/>
<path d="M14.9474 11.9693C14.8624 12.1176 14.7728 12.263 14.6788 12.4053C14.377 12.862 14.0295 13.286 13.6427 13.6708L13.6176 13.6421C13.6256 13.6516 13.6331 13.6612 13.6417 13.6718C13.4576 13.8548 13.265 14.0289 13.0643 14.1933C12.8516 14.3673 12.6298 14.5308 12.3994 14.6827C11.1903 15.4809 9.75134 15.9587 8.20275 15.9969C8.19067 15.9979 8.1781 15.9979 8.16553 15.9979V6.24412C8.20979 6.22149 8.50402 6.07714 9.10002 5.96599C9.45209 5.9001 9.91028 5.84578 10.4847 5.83472L9.42191 6.27229C9.42191 6.27229 11.2476 6.24714 12.7042 7.0911L11.2039 7.11625C11.2039 7.11625 13.3857 7.74745 14.5611 10.1601L13.1493 9.4233C13.182 9.44996 14.2473 10.309 14.9474 11.9693V11.9693Z" fill="#7A5AF8"/>
<path d="M8.16513 13.775C9.80289 13.775 11.1306 12.4473 11.1306 10.8095C11.1306 9.17178 9.80289 7.84412 8.16513 7.84412C6.52737 7.84412 5.19971 9.17178 5.19971 10.8095C5.19971 12.4473 6.52737 13.775 8.16513 13.775Z" fill="white"/>
<path d="M8.16483 12.6433C9.17759 12.6433 9.9986 11.8222 9.9986 10.8095C9.9986 9.79672 9.17759 8.97571 8.16483 8.97571C7.15206 8.97571 6.33105 9.79672 6.33105 10.8095C6.33105 11.8222 7.15206 12.6433 8.16483 12.6433Z" fill="#FEB173"/>
<path d="M8.16491 11.826C8.72629 11.826 9.18138 11.3709 9.18138 10.8096C9.18138 10.2482 8.72629 9.79309 8.16491 9.79309C7.60353 9.79309 7.14844 10.2482 7.14844 10.8096C7.14844 11.3709 7.60353 11.826 8.16491 11.826Z" fill="#263238"/>
<path d="M10.281 8.58894C8.99846 7.41856 7.01027 7.5096 5.8404 8.79163C5.36712 9.31017 5.10005 9.9444 5.03467 10.5927C7.34575 9.87097 9.50342 10.1768 11.296 10.6807C11.2391 9.90718 10.8991 9.15275 10.281 8.58894V8.58894Z" fill="#5925DC"/>
</g>
<defs>
<clipPath id="clip0_60_36514">
<rect width="16" height="16" fill="white"/>
</clipPath>
</defs>
</svg>
