<svg width="16" height="16" viewBox="0 0 16 16" fill="none" xmlns="http://www.w3.org/2000/svg">
<g clip-path="url(#clip0_60_36509)">
<path d="M16 8C16 10.7934 14.5686 13.2519 12.3993 14.6828C11.1374 15.5157 9.62555 16 8 16C7.90645 16 7.8134 15.9985 7.72036 15.995C6.13404 15.9407 4.66491 15.4246 3.44323 14.5761C1.3625 13.1316 0 10.725 0 8C0 3.58204 3.58204 0 8 0C12.418 0 16 3.58204 16 8Z" fill="#E4FFF0"/>
<path d="M6.38188 6.23414C6.19025 5.9726 2.77217 6.56256 2.57602 5.94946C2.43217 5.50083 2.35874 3.77519 2.4714 3.51013C2.1309 4.31134 1.86987 5.16033 1.66768 6.01988C1.63801 6.14712 1.60884 6.28644 1.58721 6.43029C1.54295 6.72502 1.52987 7.03735 1.60884 7.30191C1.73508 7.7259 2.05496 7.78827 2.43016 7.83504C3.53415 7.97386 4.63059 8.18309 5.71345 8.46172C5.69987 8.26708 5.7044 8.07143 5.72552 7.87779C5.79141 7.27173 6.02076 6.6878 6.38188 6.23363V6.23414Z" fill="#29609B"/>
<path d="M14.2658 6.38149C14.2442 6.23764 14.2155 6.09833 14.1859 5.97108C13.9847 5.11102 13.7247 4.26204 13.3852 3.46033C13.4973 3.72538 13.4224 5.45102 13.278 5.89966C13.0809 6.51226 9.66381 5.91877 9.47168 6.18031C9.8323 6.63498 10.0611 7.21941 10.1265 7.82547C10.1471 8.01911 10.1517 8.21476 10.1381 8.4094C11.2215 8.13177 12.3184 7.92355 13.4224 7.78624C13.7976 7.73947 14.1175 7.6776 14.2442 7.25361C14.3232 6.98906 14.3106 6.67622 14.2669 6.38199L14.2658 6.38149Z" fill="#5494CD"/>
<path d="M12.7286 9.8987C12.967 10.9745 13.0495 12.1001 12.9726 13.2182C12.8287 13.1357 12.6849 13.0537 12.5405 12.9713C12.5325 13.5431 12.4852 14.116 12.3992 14.6828C11.1373 15.5157 9.62541 16 7.99986 16C7.90631 16 7.81326 15.9985 7.72021 15.995V5.33288C7.72021 5.33288 8.3474 4.51356 9.66766 4.6212C9.471 4.71475 9.0626 4.98081 8.95145 5.28208C9.55298 5.11761 10.1258 5.2514 10.5438 5.54663C10.3235 5.59341 10.15 5.75687 10.1369 5.8635C10.4603 5.93039 10.7777 6.02947 11.0845 6.15772C11.5643 6.3579 12.019 6.631 12.4319 6.96798C12.2086 6.97653 11.9853 6.98508 11.762 6.99364C12.0959 7.21745 12.3801 7.53129 12.5873 7.90348C12.6099 7.94321 12.6311 7.98395 12.6517 8.0252C12.537 7.97037 12.4047 7.96132 12.2825 8.00005C12.8192 8.6051 13.1914 9.39524 13.3412 10.2457C13.137 10.1301 12.9328 10.0144 12.7286 9.8987V9.8987Z" fill="#08BED0"/>
<path d="M7.72053 5.33282V15.995C6.13421 15.9406 4.66508 15.4246 3.4434 14.5761C3.25781 13.8841 3.15269 13.1613 3.13257 12.432C3.13106 12.3772 3.06769 12.3596 3.04254 12.4074C3.00834 12.4728 2.9671 12.5341 2.91982 12.5884C2.88814 12.6252 2.83382 12.603 2.83432 12.5527C2.84086 11.744 2.97364 10.9322 3.22411 10.1652C3.24121 10.1129 3.18991 10.0691 3.15018 10.1023C2.92083 10.2894 2.70808 10.5032 2.51595 10.7386C2.48074 10.7818 2.41989 10.7451 2.43296 10.6888C2.62912 9.82169 2.97012 8.99131 3.43284 8.25649C3.46201 8.21022 3.41976 8.15188 3.37399 8.17501L2.9666 8.38374C2.91882 8.40838 2.87657 8.34501 2.90926 8.29874C2.99476 8.17652 3.08328 8.05682 3.17532 7.94013C3.6305 7.36023 4.16061 6.85476 4.74203 6.44686C4.66558 6.5047 4.11736 6.32213 3.95842 6.23864C3.94233 6.23009 3.93026 6.22254 3.92322 6.21651C4.46943 5.96704 5.28421 5.66225 5.86613 5.64264C5.72581 5.23072 5.36569 4.9043 4.6857 4.82735C6.38216 4.3933 7.3584 5.17338 7.72053 5.33282V5.33282Z" fill="#0691AE"/>
<path d="M7.89419 13.0597C9.64389 13.0597 11.0623 11.5832 11.0623 9.76186C11.0623 7.9405 9.64389 6.46399 7.89419 6.46399C6.14449 6.46399 4.72607 7.9405 4.72607 9.76186C4.72607 11.5832 6.14449 13.0597 7.89419 13.0597Z" fill="white"/>
<path d="M7.72015 6.46899C6.05235 6.56305 4.72757 8.00049 4.72656 9.76033C4.72556 11.5217 6.05084 12.9606 7.72015 13.0547V6.46899Z" fill="#E0E0E0"/>
<path d="M7.7646 7.85571C7.32804 7.8874 6.90254 8.07953 6.58467 8.42858C5.92429 9.15183 5.97559 10.2739 6.69934 10.9338C6.99206 11.2009 7.34967 11.3512 7.71531 11.3885C8.05229 10.1894 8.11667 8.95718 7.7646 7.85571V7.85571Z" fill="#02A486"/>
<path d="M9.20458 10.8191C9.86496 10.0959 9.81366 8.97377 9.08991 8.31389C8.71521 7.97188 8.23388 7.8215 7.76462 7.8557C8.11619 8.95667 8.05231 10.1894 7.71533 11.3885C8.2545 11.4428 8.81127 11.2506 9.20458 10.8196V10.8191Z" fill="#04BF8A"/>
<path d="M7.78757 10.6753C8.10896 10.7075 8.44091 10.5933 8.67528 10.3363C9.06859 9.90524 9.03842 9.23681 8.60688 8.843C8.38357 8.6393 8.09638 8.54928 7.81724 8.5699C7.55721 8.58901 7.30372 8.70318 7.11411 8.9114C6.7208 9.34243 6.75098 10.0109 7.18251 10.4047C7.35704 10.5636 7.57029 10.6536 7.78807 10.6753H7.78757Z" fill="#263238"/>
</g>
<defs>
<clipPath id="clip0_60_36509">
<rect width="16" height="16" fill="white"/>
</clipPath>
</defs>
</svg>
