<svg width="16" height="16" viewBox="0 0 16 16" fill="none" xmlns="http://www.w3.org/2000/svg">
<g clip-path="url(#clip0_60_36504)">
<path d="M16 8C16 9.51188 15.5805 10.9257 14.8512 12.1318C14.1118 13.3565 13.0526 14.3664 11.7896 15.0469C10.662 15.655 9.37135 16 8.00025 16C6.62915 16 5.33803 15.655 4.20986 15.0469C2.94741 14.3664 1.88815 13.3565 1.14828 12.1318C0.419478 10.9257 0 9.51188 0 8C0 3.58204 3.58165 0 8.00025 0C12.4188 0 16 3.58204 16 8Z" fill="#C6E4F6"/>
<path d="M7.11969 6.10642C7.11969 5.05782 6.26961 4.20776 5.22098 4.20776C4.17235 4.20776 3.32227 5.05782 3.32227 6.10642V11.5886C3.32227 12.6372 4.17235 13.4873 5.22098 13.4873C6.26961 13.4873 7.11969 12.6372 7.11969 11.5886V6.10642Z" fill="#EC4A0A"/>
<path d="M12.6773 6.10642C12.6773 5.05782 11.8272 4.20776 10.7786 4.20776C9.72997 4.20776 8.87988 5.05782 8.87988 6.10642V11.5886C8.87988 12.6372 9.72997 13.4873 10.7786 13.4873C11.8272 13.4873 12.6773 12.6372 12.6773 11.5886V6.10642Z" fill="#FB6514"/>
<path d="M5.22098 7.2943C5.89099 7.2943 6.43414 6.75116 6.43414 6.08117C6.43414 5.41118 5.89099 4.86804 5.22098 4.86804C4.55097 4.86804 4.00781 5.41118 4.00781 6.08117C4.00781 6.75116 4.55097 7.2943 5.22098 7.2943Z" fill="white"/>
<path d="M10.7786 7.2943C11.4486 7.2943 11.9918 6.75116 11.9918 6.08117C11.9918 5.41118 11.4486 4.86804 10.7786 4.86804C10.1086 4.86804 9.56543 5.41118 9.56543 6.08117C9.56543 6.75116 10.1086 7.2943 10.7786 7.2943Z" fill="white"/>
<path d="M8 9.82019V16C9.3711 16 10.6617 15.655 11.7894 15.0469C13.0523 14.3664 14.1116 13.3565 14.851 12.1318C12.9497 10.6818 10.5757 9.82019 8 9.82019V9.82019Z" fill="#FB6514"/>
<path d="M1.14845 12.1318C1.88832 13.3565 2.94758 14.3664 4.21003 15.0469C5.3382 15.655 6.62932 16 7.99992 16V9.82019C5.42421 9.82019 3.04918 10.6818 1.14795 12.1318H1.14845Z" fill="#EC4A0A"/>
<path d="M5.22082 6.80401C5.61999 6.80401 5.94358 6.48043 5.94358 6.08127C5.94358 5.68211 5.61999 5.35852 5.22082 5.35852C4.82164 5.35852 4.49805 5.68211 4.49805 6.08127C4.49805 6.48043 4.82164 6.80401 5.22082 6.80401Z" fill="#263238"/>
<path d="M10.7027 6.80401C11.1019 6.80401 11.4255 6.48043 11.4255 6.08127C11.4255 5.68211 11.1019 5.35852 10.7027 5.35852C10.3036 5.35852 9.97998 5.68211 9.97998 6.08127C9.97998 6.48043 10.3036 6.80401 10.7027 6.80401Z" fill="#263238"/>
</g>
<defs>
<clipPath id="clip0_60_36504">
<rect width="16" height="16" fill="white"/>
</clipPath>
</defs>
</svg>
