<svg width="24" height="24" viewBox="0 0 24 24" fill="none" xmlns="http://www.w3.org/2000/svg">
<path d="M11.9298 19.2917C11.6125 19.292 11.3387 19.2923 11.0978 19.2278C10.4507 19.0544 9.94534 18.549 9.77196 17.9019C9.7074 17.661 9.70769 17.3872 9.70803 17.0699V11.9301C9.70769 11.6127 9.7074 11.339 9.77196 11.0981C9.94534 10.451 10.4507 9.94557 11.0978 9.77223C11.3387 9.70765 11.6125 9.7079 11.9298 9.70823C12.2472 9.7079 12.6607 9.70765 12.9017 9.77223C13.5487 9.94557 14.0541 10.451 14.2275 11.0981C14.2921 11.339 14.2918 11.6127 14.2915 11.9301V17.0699C14.2918 17.3872 14.2921 17.661 14.2275 17.9019C14.0541 18.549 13.5487 19.0544 12.9017 19.2278C12.6607 19.2923 12.2472 19.292 11.9298 19.2917Z" fill="white" fill-opacity="0.6"/>
<path d="M6.09678 19.2917C5.77945 19.292 5.5057 19.2923 5.26478 19.2278C4.6177 19.0544 4.11228 18.549 3.93895 17.9019C3.87437 17.661 3.87462 17.3872 3.87495 17.0699V15.2634C3.87462 14.9461 3.87437 14.6723 3.93895 14.4314C4.11228 13.7843 4.6177 13.2789 5.26478 13.1056C5.5057 13.041 5.91928 13.0412 6.23662 13.0416C6.55395 13.0412 6.8277 13.041 7.06862 13.1056C7.7157 13.2789 8.22112 13.7843 8.39445 14.4314C8.45903 14.6723 8.45878 14.9461 8.45845 15.2634V17.0699C8.45878 17.3872 8.45903 17.661 8.39445 17.9019C8.22112 18.549 7.7157 19.0544 7.06862 19.2278C6.8277 19.2923 6.41412 19.292 6.09678 19.2917Z" fill="white" fill-opacity="0.6"/>
<path d="M17.7633 19.2917C17.446 19.292 17.1722 19.2923 16.9313 19.2278C16.2842 19.0544 15.7788 18.549 15.6055 17.9019C15.5409 17.661 15.5412 17.3872 15.5415 17.0699V6.93007C15.5412 6.61273 15.5409 6.33898 15.6055 6.09807C15.7788 5.45098 16.2842 4.94557 16.9313 4.77223C17.1722 4.70765 17.446 4.7079 17.7633 4.70823C18.0807 4.7079 18.4942 4.70765 18.7352 4.77223C19.3822 4.94557 19.8876 5.45098 20.061 6.09807C20.1256 6.33898 20.1253 6.61273 20.125 6.93007V17.0699C20.1253 17.3872 20.1256 17.661 20.061 17.9019C19.8876 18.549 19.3822 19.0544 18.7352 19.2278C18.4942 19.2923 18.0807 19.292 17.7633 19.2917Z" fill="white" fill-opacity="0.6"/>
</svg>
