<svg width="24" height="24" viewBox="0 0 24 24" fill="none" xmlns="http://www.w3.org/2000/svg">
<path opacity="0.4" d="M17.8637 10.25C18.8709 10.25 19.6967 10.25 20.3419 10.3298C21.0085 10.4122 21.7749 10.7655 22.2445 11.2348C22.6817 11.7576 22.7762 12.3728 22.7443 13.0174C22.7144 13.6239 22.5644 14.3756 22.3862 15.2688L22.365 15.375C22.1034 16.6868 21.8931 17.7414 21.6154 18.5678C21.3266 19.4277 20.6859 20.3115 20.0295 20.8475C19.3433 21.3335 18.5529 21.5477 17.5992 21.6501C16.6694 21.75 15.5039 21.75 14.0317 21.75H9.96836C8.49609 21.75 7.33058 21.75 6.40073 21.6501C5.44711 21.5477 4.65672 21.3335 3.97043 20.8475C3.3141 20.3115 2.6734 19.4277 2.38453 18.5678C2.10692 17.7414 1.8966 16.6868 1.63497 15.375L1.62509 15.3255L1.61377 15.2687C1.43559 14.3756 1.28561 13.6239 1.25565 13.0174C1.2238 12.3728 1.31827 11.7576 1.75548 11.2348C2.22512 10.7655 2.99151 10.4122 3.65802 10.3298C4.30329 10.25 5.12908 10.25 6.13624 10.25H17.8637Z" fill="#D648F0"/>
<path d="M20.75 8.425V10.4103C20.6121 10.3735 20.475 10.3462 20.3419 10.3298C19.6966 10.25 18.8708 10.25 17.8637 10.25H6.13626C5.1291 10.25 4.30329 10.25 3.65802 10.3298C3.52494 10.3462 3.38788 10.3735 3.25 10.4103V5.575C3.25 3.73866 4.77348 2.25 6.65278 2.25H9.01492C9.99012 2.25 10.9008 2.72624 11.4417 3.51911L12.5203 5.1H17.3472C19.2265 5.1 20.75 6.58865 20.75 8.425Z" fill="#D648F0"/>
</svg>
