<svg width="15" height="15" viewBox="0 0 15 15" fill="none" xmlns="http://www.w3.org/2000/svg">
<path d="M4.08648 8.28133C4.50496 8.28133 4.85416 8.28133 5.13686 8.31008C5.43278 8.3402 5.70739 8.40564 5.95489 8.57101C6.14256 8.69639 6.30366 8.85751 6.4291 9.0452C6.59448 9.2927 6.65991 9.56733 6.69004 9.8632C6.71879 10.146 6.71879 10.5431 6.71873 10.9616C6.71879 11.3801 6.71879 11.7293 6.69004 12.012C6.65991 12.3079 6.59448 12.5825 6.4291 12.83C6.30366 13.0176 6.14256 13.1788 5.95489 13.3042C5.70739 13.4696 5.43278 13.535 5.13686 13.5651C4.85416 13.5939 4.50496 13.5938 4.08648 13.5938C3.66799 13.5938 3.27084 13.5939 2.98814 13.5651C2.69222 13.535 2.41761 13.4696 2.17011 13.3042C1.98244 13.1788 1.82131 13.0176 1.69591 12.83C1.53054 12.5825 1.46509 12.3079 1.43499 12.012C1.40623 11.7293 1.40624 11.3801 1.40625 10.9616C1.40624 10.5431 1.40623 10.146 1.43499 9.8632C1.46509 9.56733 1.53054 9.2927 1.69591 9.0452C1.82131 8.85751 1.98244 8.69639 2.17011 8.57101C2.41761 8.40564 2.69222 8.3402 2.98814 8.31008C3.27084 8.28133 3.66799 8.28133 4.08648 8.28133Z" fill="white"/>
<path opacity="0.4" d="M10.9615 8.28133C11.38 8.28133 11.7292 8.28133 12.0119 8.31008C12.3078 8.3402 12.5824 8.40564 12.8299 8.57101C13.0176 8.69639 13.1787 8.85751 13.3041 9.0452C13.4695 9.2927 13.5349 9.56733 13.5651 9.8632C13.5938 10.146 13.5938 10.5431 13.5938 10.9616C13.5938 11.3801 13.5938 11.7293 13.5651 12.012C13.5349 12.3079 13.4695 12.5825 13.3041 12.83C13.1787 13.0176 13.0176 13.1788 12.8299 13.3042C12.5824 13.4696 12.3078 13.535 12.0119 13.5651C11.7292 13.5939 11.38 13.5938 10.9615 13.5938C10.543 13.5938 10.1459 13.5939 9.86319 13.5651C9.56725 13.535 9.29263 13.4696 9.04513 13.3042C8.85744 13.1788 8.69631 13.0176 8.57094 12.83C8.40556 12.5825 8.34013 12.3079 8.31 12.012C8.28125 11.7293 8.28125 11.3801 8.28125 10.9616C8.28125 10.5431 8.28125 10.146 8.31 9.8632C8.34013 9.56733 8.40556 9.2927 8.57094 9.0452C8.69631 8.85751 8.85744 8.69639 9.04513 8.57101C9.29263 8.40564 9.56725 8.3402 9.86319 8.31008C10.1459 8.28133 10.543 8.28133 10.9615 8.28133Z" fill="white"/>
<path opacity="0.4" d="M4.08648 1.40625C4.50496 1.40624 4.85416 1.40623 5.13686 1.43499C5.43278 1.46509 5.70739 1.53054 5.95489 1.69591C6.14256 1.82131 6.30366 1.98244 6.4291 2.17011C6.59448 2.41761 6.65991 2.69222 6.69004 2.98814C6.71879 3.27084 6.71879 3.66798 6.71873 4.08646C6.71879 4.50495 6.71879 4.85416 6.69004 5.13686C6.65991 5.43278 6.59448 5.70739 6.4291 5.95489C6.30366 6.14256 6.14256 6.30369 5.95489 6.42906C5.70739 6.59444 5.43278 6.65994 5.13686 6.69C4.85416 6.71875 4.50496 6.71875 4.08648 6.71875C3.66799 6.71875 3.27084 6.71875 2.98814 6.69C2.69222 6.65994 2.41761 6.59444 2.17011 6.42906C1.98244 6.30369 1.82131 6.14256 1.69591 5.95489C1.53054 5.70739 1.46509 5.43278 1.43499 5.13686C1.40623 4.85416 1.40624 4.50496 1.40625 4.08648C1.40624 3.668 1.40623 3.27084 1.43499 2.98814C1.46509 2.69222 1.53054 2.41761 1.69591 2.17011C1.82131 1.98244 1.98244 1.82131 2.17011 1.69591C2.41761 1.53054 2.69222 1.46509 2.98814 1.43499C3.27084 1.40623 3.66799 1.40624 4.08648 1.40625Z" fill="white"/>
<path d="M10.9615 1.40625C11.38 1.40624 11.7292 1.40623 12.0119 1.43499C12.3078 1.46509 12.5824 1.53054 12.8299 1.69591C13.0176 1.82131 13.1787 1.98244 13.3041 2.17011C13.4695 2.41761 13.5349 2.69222 13.5651 2.98814C13.5938 3.27084 13.5938 3.66798 13.5938 4.08646C13.5938 4.50495 13.5938 4.85416 13.5651 5.13686C13.5349 5.43278 13.4695 5.70739 13.3041 5.95489C13.1787 6.14256 13.0176 6.30369 12.8299 6.42906C12.5824 6.59444 12.3078 6.65994 12.0119 6.69C11.7292 6.71875 11.38 6.71875 10.9615 6.71875C10.543 6.71875 10.1459 6.71875 9.86319 6.69C9.56725 6.65994 9.29263 6.59444 9.04513 6.42906C8.85744 6.30369 8.69631 6.14256 8.57094 5.95489C8.40556 5.70739 8.34013 5.43278 8.31 5.13686C8.28125 4.85416 8.28125 4.50496 8.28125 4.08648C8.28125 3.668 8.28125 3.27084 8.31 2.98814C8.34013 2.69222 8.40556 2.41761 8.57094 2.17011C8.69631 1.98244 8.85744 1.82131 9.04513 1.69591C9.29263 1.53054 9.56725 1.46509 9.86319 1.43499C10.1459 1.40623 10.543 1.40624 10.9615 1.40625Z" fill="white"/>
</svg>
