<svg width="15" height="15" viewBox="0 0 15 15" fill="none" xmlns="http://www.w3.org/2000/svg">
<path d="M1.5823 5.82709C1.74836 5.79061 1.93388 5.78125 2.125 5.78125H12.875C13.0661 5.78125 13.2516 5.79061 13.4177 5.82709C13.5891 5.86473 13.7682 5.93736 13.9154 6.08458C14.0626 6.23179 14.1353 6.41094 14.1729 6.58231C14.2094 6.74838 14.2188 6.93387 14.2188 7.125V7.875C14.2188 8.06613 14.2094 8.25162 14.1729 8.41769C14.1353 8.58906 14.0626 8.76819 13.9154 8.91544C13.7682 9.06262 13.5891 9.13525 13.4177 9.17294C13.2516 9.20937 13.0661 9.21875 12.875 9.21875H2.125C1.93388 9.21875 1.74836 9.20937 1.5823 9.17294C1.41093 9.13525 1.23179 9.06262 1.08457 8.91544C0.937362 8.76819 0.864731 8.58906 0.827088 8.41769C0.790606 8.25162 0.78125 8.06613 0.78125 7.875V7.125C0.78125 6.93387 0.790606 6.74838 0.827088 6.58231C0.864731 6.41094 0.937362 6.23179 1.08457 6.08458C1.23179 5.93736 1.41093 5.86473 1.5823 5.82709Z" fill="white" fill-opacity="0.2"/>
<path opacity="0.4" d="M1.5823 0.827088C1.74836 0.790606 1.93388 0.78125 2.125 0.78125H12.875C13.0661 0.78125 13.2516 0.790606 13.4177 0.827088C13.5891 0.864731 13.7682 0.937362 13.9154 1.08457C14.0626 1.23179 14.1353 1.41093 14.1729 1.5823C14.2094 1.74836 14.2188 1.93388 14.2188 2.125V2.875C14.2188 3.06612 14.2094 3.25164 14.1729 3.4177C14.1353 3.58907 14.0626 3.76821 13.9154 3.91542C13.7682 4.06264 13.5891 4.13527 13.4177 4.17291C13.2516 4.20939 13.0661 4.21875 12.875 4.21875H2.125C1.93388 4.21875 1.74836 4.20939 1.5823 4.17291C1.41093 4.13527 1.23179 4.06264 1.08457 3.91542C0.937362 3.76821 0.864731 3.58907 0.827088 3.4177C0.790606 3.25164 0.78125 3.06612 0.78125 2.875V2.125C0.78125 1.93388 0.790606 1.74836 0.827088 1.5823C0.864731 1.41093 0.937362 1.23179 1.08457 1.08457C1.23179 0.937362 1.41093 0.864731 1.5823 0.827088Z" fill="white" fill-opacity="0.2"/>
<path opacity="0.4" d="M1.5823 10.8271C1.74836 10.7906 1.93388 10.7812 2.125 10.7812H12.875C13.0661 10.7812 13.2516 10.7906 13.4177 10.8271C13.5891 10.8647 13.7682 10.9374 13.9154 11.0846C14.0626 11.2318 14.1353 11.4109 14.1729 11.5823C14.2094 11.7484 14.2188 11.9339 14.2188 12.125V12.875C14.2188 13.0661 14.2094 13.2516 14.1729 13.4177C14.1353 13.5891 14.0626 13.7682 13.9154 13.9154C13.7682 14.0626 13.5891 14.1353 13.4177 14.1729C13.2516 14.2094 13.0661 14.2188 12.875 14.2188H2.125C1.93388 14.2188 1.74836 14.2094 1.5823 14.1729C1.41093 14.1353 1.23179 14.0626 1.08457 13.9154C0.937362 13.7682 0.864731 13.5891 0.827088 13.4177C0.790606 13.2516 0.78125 13.0661 0.78125 12.875V12.125C0.78125 11.9339 0.790606 11.7484 0.827088 11.5823C0.864731 11.4109 0.937362 11.2318 1.08457 11.0846C1.23179 10.9374 1.41093 10.8647 1.5823 10.8271Z" fill="white" fill-opacity="0.2"/>
</svg>
