<svg width="60" height="60" viewBox="0 0 60 60" fill="none" xmlns="http://www.w3.org/2000/svg">
<path d="M18.4473 2.31364C22.0892 0.793987 25.9951 0.00778162 29.9413 5.74739e-05C33.8875 -0.00766668 37.7965 0.763243 41.4443 2.26863C45.0921 3.77401 48.407 5.98429 51.1992 8.77285C53.9915 11.5614 56.2061 14.8735 57.7163 18.5193C59.2265 22.1651 60.0025 26.073 60 30.0193C59.9975 33.9655 59.2164 37.8724 57.7015 41.5163C56.1867 45.1602 53.9678 48.4694 51.172 51.2543C48.3762 54.0393 45.0584 56.2453 41.4086 57.746C34.0624 60.7667 25.8181 60.7507 18.4837 57.7015C11.1493 54.6524 5.32341 48.8191 2.2837 41.4807C-0.756002 34.1424 -0.761424 25.8981 2.26863 18.5557C5.29868 11.2134 11.1169 5.37241 18.4473 2.31364Z" fill="#2F80ED"/>
<path fill-rule="evenodd" clip-rule="evenodd" d="M9.67027 21.3277C10.0377 21.3665 10.4092 21.3244 10.7587 21.2043C11.1082 21.0843 11.4271 20.8892 11.6932 20.6329L12.4097 19.9434C13.3015 19.085 14.4972 18.6152 15.7348 18.637H15.7748L18.0835 21.2855L19.8543 21.1242L20.7862 21.0409C21.3284 20.9916 21.8363 20.7547 22.2225 20.3709C22.6266 19.97 23.1631 19.7302 23.7313 19.6966L25.1968 19.61L26.7392 21.3375C27.0712 21.7098 27.2866 22.1714 27.3588 22.665C27.431 23.1585 27.3568 23.6625 27.1453 24.1143C26.9339 24.5661 26.5945 24.9459 26.1693 25.2067C25.7441 25.4675 25.2516 25.5978 24.7531 25.5814L22.5461 25.5078C22.4036 25.5035 22.2627 25.5384 22.1387 25.6086C22.0146 25.6789 21.9122 25.7818 21.8426 25.9062C21.7536 26.0658 21.6111 26.1889 21.4402 26.2537C21.2692 26.3185 21.0809 26.3207 20.9085 26.2601L17.3259 25.0013C17.1537 24.9412 17.0018 24.8339 16.8876 24.6918C16.7733 24.5496 16.7013 24.3782 16.6797 24.1971C16.6498 23.9546 16.5303 23.732 16.3446 23.5732C16.1589 23.4143 15.9205 23.3307 15.6763 23.3388L12.2344 23.4535C12.1298 23.4566 12.0259 23.4355 11.9307 23.392C11.8356 23.3484 11.7517 23.2836 11.6856 23.2024C11.6216 23.1234 11.5406 23.0599 11.4487 23.0165C11.3567 22.9731 11.2562 22.9509 11.1545 22.9516C11.0529 22.9524 10.9527 22.976 10.8614 23.0207C10.7701 23.0654 10.69 23.1301 10.6271 23.21L8.69181 25.6615C8.32147 26.1304 8.0911 26.6943 8.02724 27.2883L7.74041 29.951C7.61533 31.1132 7.75332 32.2887 8.14415 33.3904C8.53499 34.4921 9.16866 35.4917 9.99823 36.3153L11.0438 37.3522C11.8097 38.1128 12.8414 38.5456 13.9207 38.559C15.0008 38.5724 16.0333 39.0057 16.7995 39.7671C17.5656 40.5286 18.0052 41.5585 18.0251 42.6385L18.0554 44.3032C18.0727 45.2827 18.5316 46.2027 19.3033 46.8056C19.6788 47.0986 19.9852 47.4705 20.2009 47.8951C20.4166 48.3197 20.5362 48.7866 20.5513 49.2626L20.6725 53.0671C20.7007 53.9476 21.0661 54.7835 21.6932 55.4022C22.3203 56.0208 23.1612 56.3748 24.042 56.3911C24.5224 56.4013 24.9998 56.3124 25.4443 56.1299C25.8888 55.9474 26.2909 55.6752 26.6256 55.3303L27.84 54.0704C29.1775 52.6839 29.9276 50.8341 29.9333 48.9076L29.9506 43.8172C29.9556 42.3037 30.5541 40.8526 31.6174 39.7756L32.6598 38.7203C33.2467 38.1264 33.5767 37.3255 33.5785 36.4905C33.5804 35.6554 33.2539 34.8531 32.6695 34.2566L27.8108 29.2961C27.7376 29.2208 27.6799 29.1318 27.6411 29.0342C27.6023 28.9366 27.5831 28.8323 27.5846 28.7272C27.5861 28.6222 27.6083 28.5185 27.6499 28.422C27.6915 28.3256 27.7517 28.2383 27.827 28.1651C27.9023 28.0919 27.9913 28.0342 28.089 27.9954C28.1866 27.9566 28.2909 27.9374 28.3959 27.9389C28.5009 27.9404 28.6046 27.9626 28.7011 28.0042C28.7975 28.0458 28.8849 28.106 28.9581 28.1813L31.4789 30.7985C32.2055 31.5526 33.1948 31.9976 34.2411 32.041L35.0312 32.0735C35.4854 32.0921 35.9346 31.973 36.3199 31.7317C36.7051 31.4904 37.0084 31.1383 37.1898 30.7215C37.3713 30.3047 37.4225 29.8428 37.3366 29.3964C37.2508 28.95 37.032 28.54 36.7089 28.2203L34.1112 25.6464C33.9988 25.5289 33.9366 25.3723 33.9377 25.2097C33.9388 25.0471 34.0032 24.8913 34.1171 24.7753C34.2311 24.6594 34.3858 24.5924 34.5483 24.5885C34.7109 24.5846 34.8685 24.6441 34.9879 24.7545L36.1731 25.9116C36.5282 26.2579 37.0033 26.4527 37.5001 26.4571L38.5349 26.4625C39.2918 26.4671 40.0352 26.6634 40.6958 27.033C41.3563 27.4027 41.9125 27.9336 42.3123 28.5764L44.8018 32.5768C44.8692 32.6859 44.9669 32.7732 45.083 32.8279C45.199 32.8827 45.3284 32.9027 45.4556 32.8854C45.5827 32.8681 45.7021 32.8143 45.7993 32.7305C45.8965 32.6467 45.9673 32.5366 46.0032 32.4133L46.6072 30.3536C46.711 30.0015 46.8759 29.6703 47.0942 29.3751L47.6051 28.6889C48.9462 26.8868 51.6748 26.9842 52.8849 28.8773L53.3503 29.6046C53.5956 29.9873 53.962 30.2767 54.391 30.4269C54.82 30.5771 55.2869 30.5794 55.7174 30.4333C56.1478 30.2872 56.5169 30.0012 56.7658 29.6209C57.0148 29.2406 57.1293 28.7879 57.091 28.335L57.0564 27.9367C57.0177 27.4872 57.1008 27.0356 57.2969 26.6293C57.4931 26.2231 57.7951 25.8772 58.1712 25.628L58.8617 25.168C59.0818 25.0222 59.2781 24.8519 59.4505 24.6571C58.5249 19.5645 56.2976 14.798 52.985 10.8208C49.6723 6.84364 45.3872 3.79108 40.5459 1.95984C39.8046 2.20916 39.1525 2.67009 38.6702 3.28574L38.313 3.74033C37.829 4.35687 37.2117 4.8559 36.5075 5.20004C35.8033 5.54419 35.0303 5.72453 34.2465 5.72756L30.1065 5.7438C28.7227 5.74887 27.3895 5.22365 26.381 4.27611L26.25 4.1538C25.3271 3.28645 24.1048 2.80918 22.8384 2.82169C21.572 2.83419 20.3594 3.3355 19.4538 4.22091L17.7729 5.8661C17.5426 6.10128 17.4115 6.41599 17.4068 6.74512C17.4021 7.07424 17.524 7.39258 17.7475 7.63427C17.971 7.87595 18.2788 8.02246 18.6073 8.0435C18.9358 8.06453 19.2598 7.95847 19.5122 7.74726L21.1358 6.32828C21.2968 6.17254 21.5131 6.08717 21.7371 6.09092C21.9611 6.09468 22.1745 6.18726 22.3302 6.3483C22.4859 6.50934 22.5713 6.72565 22.5675 6.94964C22.5638 7.17364 22.4712 7.38696 22.3102 7.54269L20.8944 9.0526C20.6623 9.29973 20.5198 9.61758 20.4896 9.95529C20.4559 10.3279 20.286 10.675 20.0124 10.9302C19.7389 11.1854 19.3808 11.3308 19.0068 11.3386L16.9579 11.3829C16.0416 11.403 15.163 11.7518 14.4825 12.3657L12.1576 14.4655L11.2917 11.2141C11.1332 10.6108 10.8059 10.0652 10.3483 9.64133C9.8907 9.21745 9.32169 8.93287 8.70804 8.82097C7.41255 10.1175 6.23868 11.5302 5.20117 13.0411C5.42535 13.4201 5.74182 13.7362 6.12109 13.9599C6.50037 14.1836 6.9301 14.3076 7.37024 14.3205L12.1576 14.4655L10.8685 17.2082C10.7262 17.5114 10.5229 17.782 10.2713 18.0031C10.0196 18.2241 9.72515 18.3909 9.40617 18.493L8.43204 18.8037C8.16024 18.8906 7.92663 19.0685 7.77041 19.3073C7.61418 19.5461 7.54485 19.8314 7.57403 20.1153C7.60322 20.3992 7.72916 20.6644 7.93071 20.8664C8.13226 21.0685 8.39717 21.195 8.68099 21.2249L9.67027 21.3277ZM59.4722 35.2611C59.1897 36.8453 58.7814 38.4045 58.2513 39.9239C57.6263 39.6067 57.097 39.1289 56.7176 38.5395L54.9511 35.7968C54.7226 35.4428 54.6304 35.0178 54.6917 34.6009C54.7529 34.184 54.9634 33.8035 55.284 33.5301C55.6046 33.2567 56.0136 33.109 56.4349 33.1144C56.8563 33.1198 57.2613 33.278 57.5748 33.5596L59.4722 35.2611ZM25.1958 19.61L25.7672 18.3913C26.0466 17.7951 26.4796 17.2839 27.0216 16.9101C27.5637 16.5364 28.1954 16.3135 28.852 16.2644L29.6259 16.2071C30.0289 16.1771 30.4327 16.2521 30.7981 16.4247C31.1634 16.5973 31.4778 16.8617 31.7105 17.192L32.1359 17.7927C32.3327 18.0711 32.4289 18.4081 32.4088 18.7483C32.3888 19.0886 32.2536 19.412 32.0255 19.6653C31.7973 19.9186 31.4899 20.0867 31.1535 20.1422C30.8172 20.1977 30.472 20.1371 30.1747 19.9704L29.549 19.6198C29.1015 19.3688 28.5874 19.2621 28.077 19.3145L25.1958 19.61ZM33.8677 49.3394C33.6974 49.3393 33.529 49.3044 33.3726 49.2369C33.2163 49.1694 33.0754 49.0707 32.9585 48.9469C32.8416 48.8231 32.7511 48.6768 32.6927 48.5169C32.6343 48.3569 32.6091 48.1868 32.6186 48.0168L32.676 47.0004C32.7009 46.5567 32.86 46.1291 33.1306 45.7752L33.5289 45.2589C33.6681 45.077 33.8615 44.9441 34.0811 44.8793C34.3008 44.8144 34.5354 44.8211 34.751 44.8983C34.9666 44.9756 35.1521 45.1193 35.2807 45.3088C35.4093 45.4983 35.4743 45.7238 35.4663 45.9527L35.4166 47.4539C35.4057 47.7786 35.3148 48.0969 35.1492 48.3783L34.9479 48.7214C34.7228 49.1046 34.3125 49.3394 33.8677 49.3394Z" fill="#6FCF97"/>
</svg>
