<svg width="24" height="26" viewBox="0 0 24 26" fill="none" xmlns="http://www.w3.org/2000/svg">
<path opacity="0.8" d="M17.7247 2.52417C19.3394 5.66824 20.25 9.22851 20.25 13C20.25 16.7715 19.3394 20.3318 17.7246 23.4759C21.4628 21.4572 24 17.5228 24 13C24 8.47721 21.4628 4.54289 17.7247 2.52417Z" fill="#1F1F1F"/>
<path d="M12.3286 2.27424C11.7858 1.51068 10.8612 1.09946 9.93387 1.25927C4.29102 2.23173 0 7.11821 0 13C0 18.8817 4.29099 23.7682 9.93383 24.7406C10.8611 24.9005 11.7858 24.4892 12.3285 23.7257C14.4839 20.6936 15.75 16.9936 15.75 12.9999C15.75 9.0063 14.4839 5.30632 12.3286 2.27424Z" fill="#1F1F1F"/>
</svg>
