<svg width="61" height="17" viewBox="0 0 61 17" fill="none" xmlns="http://www.w3.org/2000/svg">
<g clip-path="url(#clip0_25_192)">
<path d="M10.558 1.38067C9.80253 0.86132 8.81671 0.601013 7.60054 0.601013H2.89217C2.51934 0.601013 2.31336 0.787473 2.27423 1.16003L0.361595 13.1662C0.341716 13.2841 0.371219 13.3919 0.449833 13.49C0.527997 13.5882 0.626309 13.637 0.744049 13.637H2.98049C3.37275 13.637 3.58836 13.451 3.62793 13.078L4.15754 9.84119C4.17688 9.68432 4.24587 9.55678 4.36361 9.45855C4.48126 9.36051 4.62841 9.29638 4.80498 9.26706C4.98155 9.23791 5.14804 9.22316 5.30527 9.22316C5.46204 9.22316 5.64832 9.23315 5.86447 9.25266C6.08007 9.27218 6.21751 9.2818 6.27642 9.2818C7.96347 9.2818 9.28767 8.80644 10.2491 7.85462C11.2101 6.90333 11.6911 5.58417 11.6911 3.89658C11.6911 2.73914 11.3131 1.90057 10.558 1.3804V1.38067ZM8.13042 4.98575C8.03201 5.6725 7.77728 6.12349 7.36532 6.33937C6.95328 6.55551 6.36475 6.66309 5.59975 6.66309L4.62859 6.69241L5.12897 3.54363C5.16801 3.32803 5.29546 3.22009 5.51143 3.22009H6.07072C6.85505 3.22009 7.42433 3.33316 7.77746 3.55838C8.13041 3.78415 8.24816 4.26006 8.13042 4.98575Z" fill="#003087"/>
<path d="M60.2457 0.60083H58.0684C57.852 0.60083 57.7246 0.708768 57.6857 0.924731L55.7729 13.1665L55.7434 13.2254C55.7434 13.3239 55.7826 13.4167 55.8613 13.505C55.9393 13.5932 56.0379 13.6373 56.1555 13.6373H58.098C58.4701 13.6373 58.6761 13.4513 58.716 13.0783L60.6286 1.04247V1.01324C60.6285 0.73845 60.5006 0.601191 60.2457 0.601191V0.60083Z" fill="#009CDE"/>
<path d="M33.938 5.33926C33.938 5.2414 33.8986 5.14804 33.8206 5.05998C33.7419 4.97174 33.6536 4.92731 33.5557 4.92731H31.2899C31.0736 4.92731 30.8971 5.02589 30.76 5.22152L27.6408 9.81233L26.346 5.39827C26.2474 5.08463 26.0319 4.92731 25.6987 4.92731H23.4913C23.393 4.92731 23.3047 4.97156 23.2268 5.05998C23.148 5.14804 23.109 5.24158 23.109 5.33926C23.109 5.37875 23.3003 5.95729 23.6828 7.07551C24.0652 8.1941 24.4772 9.40065 24.9187 10.6955C25.3601 11.9901 25.5905 12.6771 25.6102 12.755C24.0014 14.9525 23.1973 16.1296 23.1973 16.2863C23.1973 16.5415 23.3246 16.6689 23.5799 16.6689H25.8457C26.0614 16.6689 26.2379 16.571 26.3755 16.3748L33.8795 5.54515C33.9185 5.5063 33.938 5.43794 33.938 5.33917V5.33926Z" fill="#003087"/>
<path d="M55.0378 4.92729H52.8012C52.5263 4.92729 52.3601 5.2511 52.3012 5.89863C51.7905 5.11411 50.8593 4.72131 49.5053 4.72131C48.0929 4.72131 46.8911 5.2511 45.9006 6.3105C44.9097 7.3699 44.4146 8.61602 44.4146 10.048C44.4146 11.2057 44.7529 12.1276 45.4296 12.814C46.1065 13.5011 47.0137 13.844 48.1519 13.844C48.7208 13.844 49.2995 13.7261 49.888 13.4909C50.4765 13.2555 50.9372 12.9418 51.2713 12.5492C51.2713 12.5689 51.2513 12.6569 51.2125 12.8138C51.1728 12.971 51.1535 13.0891 51.1535 13.1669C51.1535 13.4812 51.2807 13.6377 51.5361 13.6377H53.5668C53.9391 13.6377 54.1551 13.4517 54.2137 13.0787L55.4205 5.39808C55.4398 5.28024 55.4105 5.17258 55.3322 5.07435C55.2533 4.97649 55.1554 4.92729 55.0378 4.92729ZM51.1976 10.7247C50.6973 11.2152 50.0939 11.4603 49.3877 11.4603C48.8185 11.4603 48.3579 11.3036 48.0046 10.9895C47.6513 10.6764 47.4747 10.2447 47.4747 9.69476C47.4747 8.96942 47.72 8.3558 48.2107 7.85561C48.7004 7.35532 49.3092 7.10527 50.0351 7.10527C50.5839 7.10527 51.0401 7.26709 51.4034 7.59063C51.766 7.91443 51.9481 8.36075 51.9481 8.92985C51.9479 9.63602 51.6977 10.2345 51.1976 10.7247Z" fill="#009CDE"/>
<path d="M21.608 4.92729H19.3714C19.0964 4.92729 18.93 5.2511 18.8711 5.89863C18.3414 5.11411 17.4094 4.72131 16.0754 4.72131C14.6629 4.72131 13.4611 5.2511 12.4705 6.3105C11.4797 7.3699 10.9845 8.61602 10.9845 10.048C10.9845 11.2057 11.323 12.1276 11.9998 12.814C12.6767 13.5011 13.5838 13.844 14.7218 13.844C15.2708 13.844 15.8401 13.7261 16.4285 13.4909C17.0171 13.2555 17.4879 12.9418 17.8411 12.5492C17.7624 12.7844 17.7233 12.9905 17.7233 13.1669C17.7233 13.4812 17.8508 13.6377 18.1059 13.6377H20.1363C20.5088 13.6377 20.7249 13.4517 20.7838 13.0787L21.9902 5.39808C22.0096 5.28024 21.9803 5.17258 21.902 5.07435C21.8235 4.97649 21.7255 4.92729 21.608 4.92729ZM17.7677 10.7393C17.2673 11.2205 16.654 11.4603 15.9285 11.4603C15.3593 11.4603 14.9031 11.3036 14.5601 10.9895C14.2166 10.6764 14.045 10.2447 14.045 9.69476C14.045 8.96942 14.2901 8.3558 14.7808 7.85561C15.2709 7.35532 15.8791 7.10518 16.6053 7.10518C17.1543 7.10518 17.6105 7.26709 17.9737 7.59063C18.3364 7.91443 18.5181 8.36075 18.5181 8.92985C18.518 9.65572 18.268 10.2592 17.7677 10.7393Z" fill="#003087"/>
<path d="M43.9877 1.38067C43.2324 0.86132 42.2468 0.601013 41.0304 0.601013H36.3513C35.9589 0.601013 35.7429 0.787473 35.704 1.16003L33.7912 13.1662C33.7713 13.2841 33.8008 13.3919 33.8795 13.49C33.9573 13.5882 34.0559 13.637 34.1736 13.637H36.5865C36.8219 13.637 36.9788 13.5097 37.0575 13.2546L37.5872 9.84119C37.6067 9.68432 37.6753 9.55678 37.7933 9.45855C37.911 9.36051 38.058 9.29638 38.2347 9.26706C38.4111 9.23791 38.5776 9.22316 38.7349 9.22316C38.8918 9.22316 39.078 9.23315 39.2939 9.25266C39.5096 9.27218 39.6474 9.2818 39.7059 9.2818C41.3933 9.2818 42.7172 8.80644 43.6787 7.85462C44.64 6.90333 45.1206 5.58417 45.1206 3.89658C45.1207 2.73914 44.7428 1.90048 43.9877 1.3804V1.38067ZM40.9715 6.22154C40.5399 6.51575 39.8924 6.66282 39.0294 6.66282L38.0876 6.69232L38.5879 3.54345C38.6267 3.32794 38.7543 3.21982 38.9703 3.21982H39.4998C39.9315 3.21982 40.2747 3.23952 40.5302 3.27865C40.7847 3.31804 41.0304 3.44046 41.2658 3.64635C41.5013 3.85242 41.6189 4.15176 41.6189 4.54393C41.6189 5.36821 41.4028 5.92705 40.9715 6.22154Z" fill="#009CDE"/>
</g>
<defs>
<clipPath id="clip0_25_192">
<rect width="60.9841" height="17" fill="white"/>
</clipPath>
</defs>
</svg>
