<svg width="16" height="16" viewBox="0 0 16 16" fill="none" xmlns="http://www.w3.org/2000/svg">
<path fill-rule="evenodd" clip-rule="evenodd" d="M8.00004 1.83331C8.46031 1.83331 8.83337 2.20641 8.83337 2.66665V7.16665L13.3334 7.16665C13.7936 7.16665 14.1667 7.53971 14.1667 7.99998C14.1667 8.46025 13.7936 8.83331 13.3334 8.83331H8.83337V13.3333C8.83337 13.7936 8.46031 14.1666 8.00004 14.1666C7.53977 14.1666 7.16671 13.7936 7.16671 13.3333L7.16671 8.83331H2.66671C2.20647 8.83331 1.83337 8.46025 1.83337 7.99998C1.83337 7.53971 2.20647 7.16665 2.66671 7.16665H7.16671V2.66665C7.16671 2.20641 7.53977 1.83331 8.00004 1.83331Z" fill="#1F1F1F"/>
</svg>
