<svg width="16" height="16" viewBox="0 0 16 16" fill="none" xmlns="http://www.w3.org/2000/svg">
<path fill-rule="evenodd" clip-rule="evenodd" d="M7.33337 1.33333C4.01967 1.33333 1.33337 4.01962 1.33337 7.33333C1.33337 10.6471 4.01967 13.3333 7.33337 13.3333C8.75004 13.3333 10.052 12.8423 11.0785 12.0213L13.5286 14.4714C13.789 14.7317 14.2111 14.7317 14.4714 14.4714C14.7318 14.2111 14.7318 13.7889 14.4714 13.5286L12.0213 11.0785C12.8424 10.052 13.3334 8.74999 13.3334 7.33333C13.3334 4.01962 10.6471 1.33333 7.33337 1.33333ZM2.66671 7.33333C2.66671 4.756 4.75605 2.66666 7.33337 2.66666C9.91071 2.66666 12 4.756 12 7.33333C12 9.91066 9.91071 12 7.33337 12C4.75605 12 2.66671 9.91066 2.66671 7.33333Z" fill="#1F1F1F"/>
</svg>
