<svg width="24" height="24" viewBox="0 0 24 24" fill="none" xmlns="http://www.w3.org/2000/svg">
<g clip-path="url(#clip0_2097_5470)">
<path d="M7.30435 3.5306C9.00651 -0.697699 14.9935 -0.697699 16.6957 3.5306C17.1253 4.59794 18.1301 5.326 19.2779 5.40363C23.8173 5.71067 25.6778 11.4001 22.1824 14.3133C21.2977 15.0507 20.9142 16.2305 21.1959 17.3473C22.3088 21.7603 17.4548 25.2665 13.5982 22.8513C12.6227 22.2404 11.3773 22.2404 10.4018 22.8513C6.54521 25.2665 1.69122 21.7603 2.80414 17.3473C3.0858 16.2305 2.70228 15.0507 1.81758 14.3133C-1.67782 11.4001 0.182708 5.71067 4.72214 5.40363C5.86986 5.326 6.87467 4.59794 7.30435 3.5306Z" fill="#0000FF"/>
</g>
<defs>
<clipPath id="clip0_2097_5470">
<rect width="24" height="24" fill="white"/>
</clipPath>
</defs>
</svg>
