<svg width="16" height="16" viewBox="0 0 16 16" fill="none" xmlns="http://www.w3.org/2000/svg">
<path d="M6.66699 8.81868C6.76139 8.97328 6.87346 9.11962 7.00313 9.25455C7.80813 10.0924 9.03513 10.2234 9.97206 9.64748C10.1457 9.54075 10.3093 9.40982 10.4585 9.25455L12.6181 7.00695C13.5722 6.01391 13.5722 4.40386 12.6181 3.4108C11.6639 2.41775 10.1169 2.41776 9.16266 3.4108L8.68699 3.90587" stroke="#D0D0D0" stroke-width="1.2" stroke-linecap="round"/>
<path d="M7.31337 12.0933L6.83751 12.5885C5.88335 13.5816 4.33631 13.5816 3.38214 12.5885C2.42796 11.5955 2.42796 9.98546 3.38214 8.9924L5.54175 6.7448C6.49593 5.75174 8.04297 5.75173 8.99711 6.7448C9.12677 6.87966 9.23877 7.026 9.33317 7.18053" stroke="#D0D0D0" stroke-width="1.2" stroke-linecap="round"/>
</svg>
