<svg width="16" height="16" viewBox="0 0 16 16" fill="none" xmlns="http://www.w3.org/2000/svg">
<path d="M1.3335 4L5.94218 6.61131C7.64123 7.574 8.3591 7.574 10.0582 6.61131L14.6668 4" stroke="black" stroke-width="1.2" stroke-linejoin="round"/>
<path d="M1.34401 8.98439C1.38759 11.0281 1.40938 12.0499 2.16347 12.8069C2.91755 13.5639 3.96705 13.5902 6.06605 13.6429C7.3597 13.6755 8.64063 13.6755 9.9343 13.6429C12.0333 13.5902 13.0828 13.5639 13.8369 12.8069C14.591 12.0499 14.6128 11.0281 14.6563 8.98439C14.6704 8.32725 14.6704 7.67405 14.6563 7.01692C14.6128 4.97322 14.591 3.95138 13.8369 3.19443C13.0828 2.43747 12.0333 2.41111 9.9343 2.35837C8.64063 2.32586 7.3597 2.32586 6.06604 2.35836C3.96705 2.41109 2.91755 2.43746 2.16346 3.19442C1.40938 3.95137 1.38759 4.97322 1.344 7.01692C1.32999 7.67405 1.33 8.32725 1.34401 8.98439Z" stroke="black" stroke-width="1.2" stroke-linejoin="round"/>
</svg>
