<svg width="16" height="16" viewBox="0 0 16 16" fill="none" xmlns="http://www.w3.org/2000/svg">
<path d="M9.33325 9.87501V6.12365C9.33325 4.02685 9.33325 2.97846 8.71639 2.71755C8.09952 2.45664 7.37345 3.19797 5.92147 4.68063C5.16951 5.44845 4.74049 5.61848 3.67061 5.61848C2.73497 5.61848 2.26715 5.61848 1.93109 5.84776C1.23349 6.32372 1.33893 7.25402 1.33893 7.99935C1.33893 8.74468 1.23349 9.67495 1.93109 10.1509C2.26715 10.3802 2.73497 10.3802 3.67061 10.3802C4.74049 10.3802 5.16951 10.5503 5.92147 11.3181C7.37345 12.8007 8.09952 13.5421 8.71639 13.2811C9.33325 13.0202 9.33325 11.9718 9.33325 9.87501Z" stroke="white" stroke-opacity="0.8" stroke-linecap="round" stroke-linejoin="round"/>
<path d="M12 6.66602L14.6667 9.33268M12 9.33268L14.6667 6.66602" stroke="white" stroke-opacity="0.8" stroke-linecap="round"/>
</svg>
