<svg width="16" height="16" viewBox="0 0 16 16" fill="none" xmlns="http://www.w3.org/2000/svg">
<path d="M9.33301 9.87697V6.12561C9.33301 4.02881 9.33301 2.98041 8.71614 2.7195C8.09928 2.45859 7.37321 3.19992 5.92122 4.68258C5.16927 5.4504 4.74024 5.62043 3.67037 5.62043C2.73472 5.62043 2.2669 5.62043 1.93084 5.84972C1.23324 6.32567 1.33869 7.25597 1.33869 8.0013C1.33869 8.74663 1.23324 9.6769 1.93084 10.1529C2.2669 10.3822 2.73472 10.3822 3.67037 10.3822C4.74024 10.3822 5.16927 10.5522 5.92122 11.32C7.37321 12.8027 8.09928 13.544 8.71614 13.2831C9.33301 13.0222 9.33301 11.9738 9.33301 9.87697Z" stroke="white" stroke-opacity="0.8" stroke-linecap="round" stroke-linejoin="round"/>
<path d="M11.3333 6C11.7502 6.54645 11.9999 7.24227 11.9999 8C11.9999 8.75773 11.7502 9.45353 11.3333 10" stroke="white" stroke-opacity="0.8" stroke-linecap="round" stroke-linejoin="round"/>
<path d="M13.333 4.66797C14.1669 5.57872 14.6663 6.73844 14.6663 8.0013C14.6663 9.26417 14.1669 10.4239 13.333 11.3346" stroke="white" stroke-opacity="0.8" stroke-linecap="round" stroke-linejoin="round"/>
</svg>
